<svg width="72" height="49" viewBox="0 0 72 49" fill="none" xmlns="http://www.w3.org/2000/svg">
<g opacity="0.584">
<path d="M37.1032 6.3932C42.1231 3.56538 59.4196 1.90683 67.7982 0.999999L67.915 37.289C52.5398 39.6231 44.3998 41.3152 40.452 42.4084C38.1954 43.0333 37.3086 43.4625 37.2233 43.7041L37.2236 43.7771C37.2143 43.7551 37.2139 43.7307 37.2233 43.7041L37.1032 6.3932Z" fill="#9E60CE" stroke="black"/>
<path d="M34.4642 6.39753C29.4355 3.58394 12.1347 1.96876 3.75367 1.08301V37.3468C19.1355 39.6418 27.2805 41.3128 31.2315 42.3956C33.49 43.0145 34.3781 43.4413 34.4642 43.6825V43.7555C34.4734 43.7334 34.4737 43.7091 34.4642 43.6825V6.39753Z" fill="#9E60CE" stroke="black"/>
<path d="M1 5.5428L1.11329 40.7369C1.11329 40.7369 28.7837 44.267 30.4002 44.263C32.0166 44.2591 32.9242 47.2288 32.9242 47.2288L39.3899 47.213C39.3899 47.213 39.2027 44.8672 42.254 44.2341C45.3052 43.6009 70.9789 40.5663 70.9789 40.5663L70.8656 5.37222" stroke="#D0A6F1" stroke-width="2"/>
</g>
</svg>
